HIERARCHY
ROOT mixamorig:Hips
{
	OFFSET -0.000008 104.274872 1.554316
	CHANNELS 6 Xposition Yposition Zposition Xrotation Yrotation Zrotation
	JOINT mixamorig:Spine
	{
		OFFSET -0.000005 10.181595 0.131519
		CHANNELS 6 Xposition Yposition Zposition Xrotation Yrotation Zrotation
		JOINT mixamorig:Spine1
		{
			OFFSET -0.000000 9.893959 -1.470707
			CHANNELS 6 Xposition Yposition Zposition Xrotation Yrotation Zrotation
			JOINT mixamorig:Spine2
			{
				OFFSET -0.000000 9.220757 -1.370641
				CHANNELS 6 Xposition Yposition Zposition Xrotation Yrotation Zrotation
				JOINT mixamorig:Neck
				{
					OFFSET 0.000001 16.740417 -2.049036
					CHANNELS 6 Xposition Yposition Zposition Xrotation Yrotation Zrotation
					JOINT mixamorig:Head
					{
						OFFSET 0.000000 9.617874 1.685006
						CHANNELS 6 Xposition Yposition Zposition Xrotation Yrotation Zrotation
						JOINT mixamorig:HeadTop_End
						{
							OFFSET 0.000002 22.037354 7.501101
							CHANNELS 6 Xposition Yposition Zposition Xrotation Yrotation Zrotation
							End Site
							{
								OFFSET 0.000168 2310.654297 -282.823242
							}
						}
					}
				}
				JOINT mixamorig:RightShoulder
				{
					OFFSET -4.569970 11.014908 -2.160885
					CHANNELS 6 Xposition Yposition Zposition Xrotation Yrotation Zrotation
					JOINT mixamorig:RightArm
					{
						OFFSET -10.592851 -0.524811 -2.232101
						CHANNELS 6 Xposition Yposition Zposition Xrotation Yrotation Zrotation
						JOINT mixamorig:RightForeArm
						{
							OFFSET -27.841511 0.000031 -0.000004
							CHANNELS 6 Xposition Yposition Zposition Xrotation Yrotation Zrotation
							JOINT mixamorig:RightHand
							{
								OFFSET -28.328831 -0.000015 0.000015
								CHANNELS 6 Xposition Yposition Zposition Xrotation Yrotation Zrotation
								JOINT mixamorig:RightHandThumb1
								{
									OFFSET -2.464806 -1.573990 2.681852
									CHANNELS 6 Xposition Yposition Zposition Xrotation Yrotation Zrotation
									JOINT mixamorig:RightHandThumb2
									{
										OFFSET -3.215179 -1.872803 1.924282
										CHANNELS 6 Xposition Yposition Zposition Xrotation Yrotation Zrotation
										JOINT mixamorig:RightHandThumb3
										{
											OFFSET -2.654831 -1.527969 1.512609
											CHANNELS 6 Xposition Yposition Zposition Xrotation Yrotation Zrotation
											JOINT mixamorig:RightHandThumb4
											{
												OFFSET -2.018814 -1.152008 1.108052
												CHANNELS 6 Xposition Yposition Zposition Xrotation Yrotation Zrotation
												End Site
												{
													OFFSET -188.809540 -114.533607 132.431396
												}
											}
										}
									}
								}
								JOINT mixamorig:RightHandIndex1
								{
									OFFSET -9.108284 -0.517868 2.259835
									CHANNELS 6 Xposition Yposition Zposition Xrotation Yrotation Zrotation
									JOINT mixamorig:RightHandIndex2
									{
										OFFSET -3.699989 0.000000 0.001215
										CHANNELS 6 Xposition Yposition Zposition Xrotation Yrotation Zrotation
										JOINT mixamorig:RightHandIndex3
										{
											OFFSET -2.850006 0.000031 -0.000522
											CHANNELS 6 Xposition Yposition Zposition Xrotation Yrotation Zrotation
											JOINT mixamorig:RightHandIndex4
											{
												OFFSET -2.772186 -0.000015 -0.000020
												CHANNELS 6 Xposition Yposition Zposition Xrotation Yrotation Zrotation
												End Site
												{
													OFFSET -277.218445 0.000000 -0.050231
												}
											}
										}
									}
								}
								JOINT mixamorig:RightHandMiddle1
								{
									OFFSET -9.532516 -0.000031 -0.000023
									CHANNELS 6 Xposition Yposition Zposition Xrotation Yrotation Zrotation
									JOINT mixamorig:RightHandMiddle2
									{
										OFFSET -3.700005 -0.000015 0.003713
										CHANNELS 6 Xposition Yposition Zposition Xrotation Yrotation Zrotation
										JOINT mixamorig:RightHandMiddle3
										{
											OFFSET -2.949974 0.000015 -0.002054
											CHANNELS 6 Xposition Yposition Zposition Xrotation Yrotation Zrotation
											JOINT mixamorig:RightHandMiddle4
											{
												OFFSET -2.946640 0.000000 -0.000156
												CHANNELS 6 Xposition Yposition Zposition Xrotation Yrotation Zrotation
												End Site
												{
													OFFSET -294.664337 0.000000 -0.113670
												}
											}
										}
									}
								}
								JOINT mixamorig:RightHandRing1
								{
									OFFSET -9.103600 -0.043076 -1.865134
									CHANNELS 6 Xposition Yposition Zposition Xrotation Yrotation Zrotation
									JOINT mixamorig:RightHandRing2
									{
										OFFSET -3.379288 0.000000 -0.001055
										CHANNELS 6 Xposition Yposition Zposition Xrotation Yrotation Zrotation
										JOINT mixamorig:RightHandRing3
										{
											OFFSET -2.889687 -0.000015 0.000379
											CHANNELS 6 Xposition Yposition Zposition Xrotation Yrotation Zrotation
											JOINT mixamorig:RightHandRing4
											{
												OFFSET -2.638809 -0.000015 0.000941
												CHANNELS 6 Xposition Yposition Zposition Xrotation Yrotation Zrotation
												End Site
												{
													OFFSET -263.880371 0.000000 0.516020
												}
											}
										}
									}
								}
								JOINT mixamorig:RightHandPinky1
								{
									OFFSET -8.076683 -0.486710 -3.806280
									CHANNELS 6 Xposition Yposition Zposition Xrotation Yrotation Zrotation
									JOINT mixamorig:RightHandPinky2
									{
										OFFSET -3.600014 -0.000015 -0.003747
										CHANNELS 6 Xposition Yposition Zposition Xrotation Yrotation Zrotation
										JOINT mixamorig:RightHandPinky3
										{
											OFFSET -2.099983 0.000000 -0.005739
											CHANNELS 6 Xposition Yposition Zposition Xrotation Yrotation Zrotation
											JOINT mixamorig:RightHandPinky4
											{
												OFFSET -2.115768 -0.000031 -0.003680
												CHANNELS 6 Xposition Yposition Zposition Xrotation Yrotation Zrotation
												End Site
												{
													OFFSET -211.577087 0.000000 -0.350686
												}
											}
										}
									}
								}
							}
						}
					}
				}
				JOINT mixamorig:LeftShoulder
				{
					OFFSET 4.570447 11.014725 -2.160855
					CHANNELS 6 Xposition Yposition Zposition Xrotation Yrotation Zrotation
					JOINT mixamorig:LeftArm
					{
						OFFSET 10.592371 -0.524597 -2.232119
						CHANNELS 6 Xposition Yposition Zposition Xrotation Yrotation Zrotation
						JOINT mixamorig:LeftForeArm
						{
							OFFSET 27.841532 -0.000031 0.000026
							CHANNELS 6 Xposition Yposition Zposition Xrotation Yrotation Zrotation
							JOINT mixamorig:LeftHand
							{
								OFFSET 28.328846 -0.000061 0.000022
								CHANNELS 6 Xposition Yposition Zposition Xrotation Yrotation Zrotation
								JOINT mixamorig:LeftHandThumb1
								{
									OFFSET 2.466141 -1.576172 2.681732
									CHANNELS 6 Xposition Yposition Zposition Xrotation Yrotation Zrotation
									JOINT mixamorig:LeftHandThumb2
									{
										OFFSET 3.217812 -1.872070 1.916482
										CHANNELS 6 Xposition Yposition Zposition Xrotation Yrotation Zrotation
										JOINT mixamorig:LeftHandThumb3
										{
											OFFSET 2.656029 -1.528778 1.514513
											CHANNELS 6 Xposition Yposition Zposition Xrotation Yrotation Zrotation
											JOINT mixamorig:LeftHandThumb4
											{
												OFFSET 2.020889 -1.154053 1.115139
												CHANNELS 6 Xposition Yposition Zposition Xrotation Yrotation Zrotation
												End Site
												{
													OFFSET 190.885437 -115.081749 130.048782
												}
											}
										}
									}
								}
								JOINT mixamorig:LeftHandIndex1
								{
									OFFSET 9.109314 -0.518021 2.259871
									CHANNELS 6 Xposition Yposition Zposition Xrotation Yrotation Zrotation
									JOINT mixamorig:LeftHandIndex2
									{
										OFFSET 3.699989 0.000000 -0.000322
										CHANNELS 6 Xposition Yposition Zposition Xrotation Yrotation Zrotation
										JOINT mixamorig:LeftHandIndex3
										{
											OFFSET 2.850006 0.000000 0.000352
											CHANNELS 6 Xposition Yposition Zposition Xrotation Yrotation Zrotation
											JOINT mixamorig:LeftHandIndex4
											{
												OFFSET 2.774864 -0.000031 -0.000027
												CHANNELS 6 Xposition Yposition Zposition Xrotation Yrotation Zrotation
												End Site
												{
													OFFSET 277.486267 0.000000 -0.009857
												}
											}
										}
									}
								}
								JOINT mixamorig:LeftHandMiddle1
								{
									OFFSET 9.533394 0.000061 0.000044
									CHANNELS 6 Xposition Yposition Zposition Xrotation Yrotation Zrotation
									JOINT mixamorig:LeftHandMiddle2
									{
										OFFSET 3.699989 -0.000015 -0.000231
										CHANNELS 6 Xposition Yposition Zposition Xrotation Yrotation Zrotation
										JOINT mixamorig:LeftHandMiddle3
										{
											OFFSET 2.949997 -0.000015 -0.000059
											CHANNELS 6 Xposition Yposition Zposition Xrotation Yrotation Zrotation
											JOINT mixamorig:LeftHandMiddle4
											{
												OFFSET 2.952896 0.000031 0.000063
												CHANNELS 6 Xposition Yposition Zposition Xrotation Yrotation Zrotation
												End Site
												{
													OFFSET 295.289337 0.000000 0.022810
												}
											}
										}
									}
								}
								JOINT mixamorig:LeftHandRing1
								{
									OFFSET 9.104523 -0.042999 -1.865074
									CHANNELS 6 Xposition Yposition Zposition Xrotation Yrotation Zrotation
									JOINT mixamorig:LeftHandRing2
									{
										OFFSET 3.150009 -0.000031 0.000043
										CHANNELS 6 Xposition Yposition Zposition Xrotation Yrotation Zrotation
										JOINT mixamorig:LeftHandRing3
										{
											OFFSET 2.949982 -0.000015 0.000040
											CHANNELS 6 Xposition Yposition Zposition Xrotation Yrotation Zrotation
											JOINT mixamorig:LeftHandRing4
											{
												OFFSET 2.644348 0.000000 0.000057
												CHANNELS 6 Xposition Yposition Zposition Xrotation Yrotation Zrotation
												End Site
												{
													OFFSET 264.434631 0.000000 0.012105
												}
											}
										}
									}
								}
								JOINT mixamorig:LeftHandPinky1
								{
									OFFSET 8.077789 -0.486847 -3.806259
									CHANNELS 6 Xposition Yposition Zposition Xrotation Yrotation Zrotation
									JOINT mixamorig:LeftHandPinky2
									{
										OFFSET 3.599953 0.000031 0.014727
										CHANNELS 6 Xposition Yposition Zposition Xrotation Yrotation Zrotation
										JOINT mixamorig:LeftHandPinky3
										{
											OFFSET 2.100021 0.000015 0.007705
											CHANNELS 6 Xposition Yposition Zposition Xrotation Yrotation Zrotation
											JOINT mixamorig:LeftHandPinky4
											{
												OFFSET 2.125504 0.000031 0.007517
												CHANNELS 6 Xposition Yposition Zposition Xrotation Yrotation Zrotation
												End Site
												{
													OFFSET 212.550781 0.000000 0.625752
												}
											}
										}
									}
								}
							}
						}
					}
				}
			}
		}
	}
	JOINT mixamorig:RightUpLeg
	{
		OFFSET -8.207787 -6.751648 -1.599560
		CHANNELS 6 Xposition Yposition Zposition Xrotation Yrotation Zrotation
		JOINT mixamorig:RightLeg
		{
			OFFSET -0.000002 -44.370117 0.345942
			CHANNELS 6 Xposition Yposition Zposition Xrotation Yrotation Zrotation
			JOINT mixamorig:RightFoot
			{
				OFFSET 0.000003 -44.423679 -3.043532
				CHANNELS 6 Xposition Yposition Zposition Xrotation Yrotation Zrotation
				JOINT mixamorig:RightToeBase
				{
					OFFSET -0.000002 -8.728671 10.710558
					CHANNELS 6 Xposition Yposition Zposition Xrotation Yrotation Zrotation
					JOINT mixamorig:RightToe_End
					{
						OFFSET -0.000001 -0.000679 9.278119
						CHANNELS 6 Xposition Yposition Zposition Xrotation Yrotation Zrotation
						End Site
						{
							OFFSET 0.000000 -0.067690 927.812134
						}
					}
				}
			}
		}
	}
	JOINT mixamorig:LeftUpLeg
	{
		OFFSET 8.207793 -6.751686 -1.599556
		CHANNELS 6 Xposition Yposition Zposition Xrotation Yrotation Zrotation
		JOINT mixamorig:LeftLeg
		{
			OFFSET -0.000004 -44.370014 0.346954
			CHANNELS 6 Xposition Yposition Zposition Xrotation Yrotation Zrotation
			JOINT mixamorig:LeftFoot
			{
				OFFSET -0.000001 -44.423672 -3.044401
				CHANNELS 6 Xposition Yposition Zposition Xrotation Yrotation Zrotation
				JOINT mixamorig:LeftToeBase
				{
					OFFSET -0.000002 -8.728669 10.710558
					CHANNELS 6 Xposition Yposition Zposition Xrotation Yrotation Zrotation
					JOINT mixamorig:LeftToe_End
					{
						OFFSET -0.000003 -0.000679 9.278133
						CHANNELS 6 Xposition Yposition Zposition Xrotation Yrotation Zrotation
						End Site
						{
							OFFSET 0.000000 -0.068021 927.813477
						}
					}
				}
			}
		}
	}
}
MOTION
Frames: 3
Frame Time: 0.033333
0.000006 104.270477 1.554256 0.000010 0.000003 -0.000113 -0.000005 10.181587 0.131522 0.000001 -0.000003 0.000084 -0.000000 9.893967 -1.470711 0.000001 0.000000 -0.000000 -0.000000 9.220802 -1.370642 0.000000 -0.000000 -0.000000 0.000001 16.740433 -2.049030 0.000000 -0.000000 -0.000000 0.000000 9.617859 1.685014 0.000000 0.000000 0.000000 0.000002 22.037384 7.501101 0.000000 -0.000000 0.000000 -4.569968 11.014880 -2.160881 0.000008 0.000001 -0.000038 -10.592875 -0.524772 -2.231903 76.279860 31.293601 -24.807274 -27.841509 -0.000007 0.000562 -46.852171 108.546862 62.127981 -28.328815 -0.000006 0.000024 -0.000320 -0.000046 0.000008 -2.464425 -1.573733 2.682307 -51.040983 -170.260333 -18.888408 -3.215285 -1.872595 1.924649 152.720093 30.726060 -0.498587 -2.654971 -1.527876 1.513059 142.197818 27.909954 -36.446651 -2.018831 -1.151996 1.108068 -0.000003 0.000001 0.000004 -9.108378 -0.517562 2.260148 104.364860 15.805018 -20.338104 -3.700052 0.000332 0.001513 101.423644 11.589887 -14.114179 -2.850064 0.000379 -0.000234 101.306650 9.184823 -11.190262 -2.772171 -0.000002 -0.000022 -0.000000 0.000001 -0.000000 -9.532587 0.000270 0.000278 99.365305 17.153417 -20.324715 -3.700083 0.000320 0.003997 99.263201 12.949243 -15.095442 -2.950061 0.000347 -0.001778 100.157751 10.962102 -13.075252 -2.946636 0.000013 -0.000157 -0.000000 -0.000001 -0.000002 -9.103707 -0.042779 -1.864852 96.601790 20.487067 -22.880715 -3.379367 0.000298 -0.000767 99.714854 13.509183 -16.009996 -2.889767 0.000331 0.000701 105.311818 8.613987 -11.335303 -2.638800 -0.000001 0.000940 -0.000000 -0.000001 -0.000000 -8.076759 -0.486408 -3.806054 77.543739 22.430809 -17.969504 -3.600064 0.000261 -0.003534 83.860947 13.339863 -11.653155 -2.100041 0.000312 -0.005507 88.919521 7.381899 -7.023827 -2.115760 -0.000026 -0.003683 0.000006 0.000000 -0.000000 4.570446 11.014691 -2.160851 -0.000018 0.000010 -0.000021 10.592420 -0.524463 -2.232365 74.721709 -18.929224 14.507025 27.841820 0.000060 -0.000219 96.047507 -71.040647 76.860481 28.328842 -0.000029 0.000020 0.000023 -0.000088 -0.000001 2.465936 -1.576105 2.681904 -48.536697 170.463709 12.075216 3.217833 -1.871800 1.916385 158.161732 -27.757551 18.633191 2.656106 -1.528682 1.514462 134.081449 -29.444474 52.450365 2.020884 -1.154037 1.115137 -0.000001 0.000005 0.000002 9.109377 -0.517855 2.259732 84.879191 -16.170328 14.790727 3.700030 0.000131 -0.000461 79.800891 -15.804091 13.254354 2.850072 0.000169 0.000223 78.405497 -13.010984 10.626727 2.774895 -0.000033 -0.000024 -0.000000 0.000001 -0.000000 9.533468 0.000222 -0.000083 85.991890 -14.849839 13.847654 3.700038 0.000171 -0.000382 84.812986 -13.419407 12.263191 2.950062 0.000168 -0.000208 85.930467 -15.099429 14.076902 2.952870 -0.000014 0.000061 0.000001 0.000000 0.000001 9.104604 -0.042843 -1.865236 83.683423 -13.041622 11.689339 3.150046 0.000196 -0.000097 86.094084 -11.298739 10.559643 2.950026 0.000185 -0.000086 88.842074 -12.449985 12.204521 2.644317 0.000031 0.000055 0.000002 -0.000001 0.000000 8.077861 -0.486731 -3.806413 72.605300 -14.969463 11.457434 3.600005 0.000187 0.014556 77.049390 -11.912179 9.898518 2.100041 0.000186 0.007552 81.261773 -11.113477 9.954536 2.125484 -0.000000 0.007514 0.000000 -0.000001 -0.000001 -8.207786 -6.751667 -1.599560 -0.077001 -0.000003 0.000080 -0.000002 -44.370110 0.345938 0.153719 -0.000000 -0.000000 0.000000 -44.423679 -3.043532 -0.076700 0.000000 -0.000002 -0.000006 -8.728667 10.710559 -0.000009 -0.000000 -0.000000 -0.000001 -0.000679 9.278123 0.000000 -0.000000 -0.000000 8.207792 -6.751710 -1.599556 -0.074518 -0.000003 0.000081 -0.000002 -44.370014 0.346960 0.148822 0.000002 0.000000 -0.000001 -44.423664 -3.044403 -0.074314 0.000000 -0.000002 -0.000004 -8.728671 10.710558 0.000007 -0.000000 -0.000000 0.000000 -0.000680 9.278137 -0.000000 0.000000 -0.000001 
0.000006 104.270477 1.554256 0.000010 0.000003 -0.000113 -0.000005 10.181587 0.131522 0.000001 -0.000003 0.000084 -0.000000 9.893967 -1.470711 0.000001 0.000000 -0.000000 -0.000000 9.220802 -1.370642 0.000000 -0.000000 -0.000000 0.000001 16.740433 -2.049030 0.000000 -0.000000 -0.000000 0.000000 9.617859 1.685014 0.000000 0.000000 0.000000 0.000002 22.037384 7.501101 0.000000 -0.000000 0.000000 -4.569968 11.014880 -2.160881 0.000008 0.000001 -0.000038 -10.592860 -0.524805 -2.231847 76.884448 39.537978 -31.846604 -27.841518 0.000011 0.000553 -44.000185 105.597621 56.049506 -28.328810 0.000022 0.000027 -0.000321 -0.000046 0.000009 -2.464420 -1.573723 2.682298 -51.865704 -168.161894 -20.980051 -3.215272 -1.872555 1.924649 151.167946 31.366606 5.268575 -2.654942 -1.527881 1.513079 142.865441 27.861228 -35.154082 -2.018826 -1.152001 1.108065 -0.000002 -0.000001 0.000002 -9.108366 -0.517528 2.260144 104.728178 13.482439 -17.488751 -3.700070 0.000319 0.001516 100.975474 11.090994 -13.401179 -2.850081 0.000370 -0.000252 98.566357 9.427514 -10.944313 -2.772151 -0.000015 -0.000016 0.000001 0.000001 0.000001 -9.532587 0.000285 0.000265 99.107076 13.260903 -15.691900 -3.700075 0.000343 0.003995 99.953098 10.553584 -12.441444 -2.950034 0.000340 -0.001777 98.813699 10.637716 -12.393192 -2.946646 0.000029 -0.000152 -0.000001 -0.000001 -0.000001 -9.103695 -0.042748 -1.864856 95.693846 16.658200 -18.324405 -3.379335 0.000325 -0.000768 100.702103 10.273253 -12.402632 -2.889766 0.000332 0.000683 103.896623 9.130661 -11.709347 -2.638814 0.000014 0.000940 -0.000001 -0.000002 -0.000001 -8.076764 -0.486408 -3.806061 77.773779 22.442122 -18.051548 -3.600039 0.000250 -0.003544 83.321683 11.863967 -10.233211 -2.100048 0.000305 -0.005511 86.323168 7.134977 -6.482061 -2.115765 -0.000055 -0.003678 -0.000004 0.000003 -0.000005 4.570446 11.014691 -2.160851 -0.000018 0.000010 -0.000021 10.592424 -0.524471 -2.232377 73.699271 -22.454252 16.923035 27.841820 0.000063 -0.000196 98.562198 -75.127177 83.565240 28.328840 -0.000014 0.000026 0.000022 -0.000088 -0.000001 2.466130 -1.576144 2.681892 -19.748131 161.142700 -52.334945 3.217862 -1.871868 1.916409 162.332887 -22.827641 38.393173 2.656084 -1.528681 1.514493 131.993597 -30.301127 59.688586 2.020879 -1.154055 1.115151 -0.000005 0.000002 0.000008 9.109370 -0.517863 2.259742 86.190150 -17.514972 16.391470 3.700026 0.000155 -0.000473 83.327809 -10.996150 9.805789 2.850031 0.000195 0.000189 82.169710 -7.477489 6.520700 2.774878 -0.000028 -0.000026 0.000000 -0.000001 0.000000 9.533454 0.000217 -0.000098 86.917224 -17.068195 16.177368 3.700028 0.000195 -0.000394 88.211873 -9.230753 8.945741 2.950045 0.000188 -0.000213 88.375886 -8.233989 8.007301 2.952859 -0.000030 0.000064 0.000004 0.000002 -0.000000 9.104572 -0.042853 -1.865224 85.630293 -16.505509 15.309142 3.150039 0.000216 -0.000105 91.654657 -11.498173 11.834626 2.950018 0.000195 -0.000089 92.215709 -9.152328 9.513430 2.644318 0.000015 0.000057 0.000003 -0.000000 -0.000000 8.077841 -0.486726 -3.806412 78.286426 -18.570752 15.652391 3.600026 0.000161 0.014573 78.618517 -16.288736 13.800191 2.100054 0.000168 0.007533 79.546268 -11.095155 9.643122 2.125504 -0.000016 0.007516 -0.000001 0.000002 -0.000000 -8.207786 -6.751667 -1.599560 -0.077001 -0.000003 0.000080 -0.000002 -44.370110 0.345938 0.153719 -0.000000 -0.000000 0.000000 -44.423679 -3.043532 -0.076700 0.000000 -0.000002 -0.000006 -8.728667 10.710559 -0.000009 -0.000000 -0.000000 -0.000001 -0.000679 9.278123 0.000000 -0.000000 -0.000000 8.207792 -6.751710 -1.599556 -0.074518 -0.000003 0.000081 -0.000002 -44.370014 0.346960 0.148822 0.000002 0.000000 -0.000001 -44.423664 -3.044403 -0.074314 0.000000 -0.000002 -0.000004 -8.728671 10.710558 0.000007 -0.000000 -0.000000 0.000000 -0.000680 9.278137 -0.000000 0.000000 -0.000001 
0.000006 104.270477 1.554256 0.000010 0.000003 -0.000113 -0.000005 10.181587 0.131522 0.000001 -0.000003 0.000084 -0.000000 9.893967 -1.470711 0.000001 0.000000 -0.000000 -0.000000 9.220802 -1.370642 0.000000 -0.000000 -0.000000 0.000001 16.740433 -2.049030 0.000000 -0.000000 -0.000000 0.000000 9.617859 1.685014 0.000000 0.000000 0.000000 0.000002 22.037384 7.501101 0.000000 -0.000000 0.000000 -4.569968 11.014880 -2.160881 0.000008 0.000001 -0.000038 -10.592852 -0.524799 -2.231834 77.449878 42.112423 -34.312026 -27.841518 -0.000024 0.000558 -43.378924 103.599695 53.626629 -28.328821 0.000008 0.000025 -0.000321 -0.000044 0.000007 -2.464435 -1.573722 2.682292 -52.812153 -170.128852 -24.152445 -3.215272 -1.872568 1.924653 151.912273 31.241644 3.668282 -2.654938 -1.527850 1.513065 143.969091 27.606170 -35.955629 -2.018829 -1.151996 1.108065 -0.000004 0.000004 -0.000000 -9.108376 -0.517553 2.260136 105.162592 14.499469 -18.940458 -3.700075 0.000322 0.001541 101.550071 11.739511 -14.327966 -2.850085 0.000372 -0.000245 98.945590 10.000472 -11.685821 -2.772156 -0.000000 -0.000019 -0.000000 0.000001 0.000000 -9.532598 0.000278 0.000265 99.336222 14.821026 -17.584308 -3.700077 0.000321 0.004008 100.308226 11.485457 -13.630404 -2.950052 0.000347 -0.001772 99.504122 11.184980 -13.188323 -2.946632 -0.000000 -0.000154 -0.000000 0.000000 -0.000000 -9.103705 -0.042766 -1.864847 96.002550 18.315034 -20.251810 -3.379336 0.000325 -0.000777 100.568450 11.159546 -13.436459 -2.889756 0.000346 0.000702 104.226371 9.350191 -12.059653 -2.638823 -0.000016 0.000937 -0.000000 0.000002 -0.000001 -8.076794 -0.486409 -3.806051 78.625040 24.294763 -19.858947 -3.600060 0.000258 -0.003528 83.477800 12.912882 -11.195162 -2.100045 0.000310 -0.005491 86.927442 7.739763 -7.122489 -2.115768 -0.000041 -0.003679 -0.000001 0.000001 -0.000006 4.570446 11.014691 -2.160851 -0.000018 0.000010 -0.000021 10.592453 -0.524469 -2.232398 72.306295 -30.621193 22.622649 27.841827 0.000040 -0.000186 100.635420 -76.475559 87.046670 28.328835 -0.000025 0.000023 0.000024 -0.000089 -0.000001 2.466205 -1.576121 2.681869 -10.906435 161.966530 -68.564997 3.217878 -1.871876 1.916423 160.797953 -20.267922 50.177186 2.656103 -1.528703 1.514487 134.842892 -29.214666 59.701912 2.020895 -1.154069 1.115151 0.000001 0.000002 0.000004 9.109385 -0.517859 2.259745 87.175849 -19.121958 18.205569 3.700046 0.000163 -0.000449 83.396774 -11.816722 10.550327 2.850035 0.000185 0.000190 81.443797 -8.294717 7.142261 2.774878 -0.000031 -0.000025 -0.000000 -0.000001 0.000001 9.533462 0.000219 -0.000100 87.706671 -18.855449 18.119228 3.700029 0.000202 -0.000375 87.738745 -9.768487 9.389599 2.950029 0.000196 -0.000212 87.377080 -8.233706 7.868998 2.952879 -0.000016 0.000062 0.000005 -0.000001 -0.000002 9.104598 -0.042861 -1.865231 86.260112 -18.203552 17.071872 3.150062 0.000205 -0.000098 91.431269 -11.694435 11.989991 2.950012 0.000183 -0.000094 91.390957 -8.683406 8.897698 2.644320 0.000017 0.000057 0.000001 -0.000000 -0.000001 8.077849 -0.486722 -3.806414 79.147276 -20.160756 17.224168 3.600006 0.000177 0.014583 78.622820 -17.099425 14.473343 2.100042 0.000174 0.007550 78.786956 -11.046709 9.474491 2.125488 -0.000001 0.007516 -0.000001 -0.000002 0.000000 -8.207786 -6.751667 -1.599560 -0.077001 -0.000003 0.000080 -0.000002 -44.370110 0.345938 0.153719 -0.000000 -0.000000 0.000000 -44.423679 -3.043532 -0.076700 0.000000 -0.000002 -0.000006 -8.728667 10.710559 -0.000009 -0.000000 -0.000000 -0.000001 -0.000679 9.278123 0.000000 -0.000000 -0.000000 8.207792 -6.751710 -1.599556 -0.074518 -0.000003 0.000081 -0.000002 -44.370014 0.346960 0.148822 0.000002 0.000000 -0.000001 -44.423664 -3.044403 -0.074314 0.000000 -0.000002 -0.000004 -8.728671 10.710558 0.000007 -0.000000 -0.000000 0.000000 -0.000680 9.278137 -0.000000 0.000000 -0.000001 
